HIERARCHY
ROOT Hips
{
	OFFSET -3.958830 18.904000 13.208200
	CHANNELS 6 Xposition Yposition Zposition Zrotation Yrotation Xrotation 
	JOINT LHipJoint
	{
		OFFSET 0.000000 0.000000 0.000000
		CHANNELS 3 Zrotation Yrotation Xrotation
		JOINT LeftUpLeg
		{
			OFFSET 1.800000 -1.400000 0.085000
			CHANNELS 3 Zrotation Yrotation Xrotation
			JOINT LeftLeg
			{
				OFFSET 2.215000 -6.000000 0.000000
				CHANNELS 3 Zrotation Yrotation Xrotation
				JOINT LeftFoot
				{
					OFFSET 2.500000 -6.900000 0.000000
					CHANNELS 3 Zrotation Yrotation Xrotation
					JOINT LeftToeBase
					{
						OFFSET 0.200000 -0.500000 1.950000
						CHANNELS 3 Zrotation Yrotation Xrotation
						End Site
						{
							OFFSET 0.000000 0.000000 0.000000
						}
					}
				}
			}
		}
	}
	JOINT RHipJoint
	{
		OFFSET 0.000000 0.000000 0.000000
		CHANNELS 3 Zrotation Yrotation Xrotation
		JOINT RightUpLeg
		{
			OFFSET -1.800000 -1.400000 0.085000
			CHANNELS 3 Zrotation Yrotation Xrotation
			JOINT RightLeg
			{
				OFFSET -2.215000 -6.000000 0.000000
				CHANNELS 3 Zrotation Yrotation Xrotation
				JOINT RightFoot
				{
					OFFSET -2.500000 -6.900000 0.000000
					CHANNELS 3 Zrotation Yrotation Xrotation
					JOINT RightToeBase
					{
						OFFSET -0.200000 -0.500000 1.950000
						CHANNELS 3 Zrotation Yrotation Xrotation
						End Site
						{
							OFFSET 0.000000 0.000000 0.000000
						}
					}
				}
			}
		}
	}
	JOINT LowerBack
	{
		OFFSET 0.000000 0.000000 0.000000
		CHANNELS 3 Zrotation Yrotation Xrotation
		JOINT Spine
		{
			OFFSET -0.087000 1.940000 -0.288900
			CHANNELS 3 Zrotation Yrotation Xrotation
			JOINT Spine1
			{
				OFFSET 0.000000 1.950000 0.060000
				CHANNELS 3 Zrotation Yrotation Xrotation
				JOINT Neck
				{
					OFFSET 0.000000 0.000000 0.000000
					CHANNELS 3 Zrotation Yrotation Xrotation
					JOINT Neck1
					{
						OFFSET 0.000000 1.600000 0.340000
						CHANNELS 3 Zrotation Yrotation Xrotation
						JOINT Head
						{
							OFFSET 0.000000 1.667000 -0.240000
							CHANNELS 3 Zrotation Yrotation Xrotation
							End Site
							{
								OFFSET 0.000000 0.000000 0.000000
							}
						}
					}
				}
				JOINT LeftShoulder
				{
					OFFSET 0.000000 0.000000 0.000000
					CHANNELS 3 Zrotation Yrotation Xrotation
					JOINT LeftArm
					{
						OFFSET 2.700000 1.550000 -0.730000
						CHANNELS 3 Zrotation Yrotation Xrotation
						JOINT LeftForeArm
						{
							OFFSET 5.450000 0.000000 0.000000
							CHANNELS 3 Zrotation Yrotation Xrotation
							JOINT LeftHand
							{
								OFFSET 3.450000 0.000000 0.000000
								CHANNELS 3 Zrotation Yrotation Xrotation
								JOINT LeftHandIndex1
								{
									OFFSET 0.750000 0.000000 0.000000
									CHANNELS 3 Zrotation Yrotation Xrotation
									End Site
									{
										OFFSET 0.000000 0.000000 0.000000
									}
								}
							}
						}
					}
				}
				JOINT RightShoulder
				{
					OFFSET 0.000000 0.000000 0.000000
					CHANNELS 3 Zrotation Yrotation Xrotation
					JOINT RightArm
					{
						OFFSET -2.700000 1.550000 -0.730000
						CHANNELS 3 Zrotation Yrotation Xrotation
						JOINT RightForeArm
						{
							OFFSET -5.450000 0.000000 0.000000
							CHANNELS 3 Zrotation Yrotation Xrotation
							JOINT RightHand
							{
								OFFSET -3.450000 0.000000 0.000000
								CHANNELS 3 Zrotation Yrotation Xrotation
								JOINT RightHandIndex1
								{
									OFFSET -0.750000 0.000000 0.000000
									CHANNELS 3 Zrotation Yrotation Xrotation
									End Site
									{
										OFFSET 0.000000 0.000000 0.000000
									}
								}
							}
						}
					}
				}
			}
		}
	}
}
MOTION
Frames: 8
Frame Time: 0.016667
0.395070 17.783840 -2.369730 -1.364155 -1.996133 1.798475 -15.095716 13.439702 2.804643 6.536582 -1.204042 -12.811874 -5.019906 4.685753 8.425960 -0.093763 3.349799 3.412411 -0.054640 -0.097600 -0.067850 18.253233 -11.053325 2.716914 -5.412432 1.044572 -14.549675 6.554699 -4.326075 11.422216 0.089246 -3.045072 3.306517 -0.003800 0.221500 0.058000 -3.614786 -1.570953 -7.146400 6.766949 -0.269195 6.095682 -1.054358 -0.035064 3.627393 1.095957 -2.519824 -6.888764 -7.634780 4.167546 42.414019 -0.951050 2.499970 5.344170 -28.873291 -6.800988 2.215822 -49.661516 -6.075478 -1.281036 -15.204402 -11.904875 0.596788 -3.918946 3.065395 -0.045870 0.173740 -0.133320 0.036970 27.023780 9.220258 3.400945 49.704782 6.320448 -3.357499 17.424217 15.184402 0.741815 2.636331 -1.365634 -0.085790 0.038230 0.073040 0.016820 
0.395610 17.782820 -2.369210 -1.369982 -1.978823 1.805941 -15.094957 13.438870 2.803353 6.526839 -1.203594 -12.802110 -5.006338 4.681520 8.418518 -0.093123 3.349174 3.413329 -0.054680 -0.098590 -0.067120 18.254526 -11.051788 2.717732 -5.415560 1.043102 -14.542857 6.579029 -4.328126 11.393660 0.088857 -3.046325 3.305913 -0.004560 0.221220 0.058990 -3.618286 -1.571546 -7.145006 6.797915 -0.289110 6.070948 -1.066175 -0.056345 3.645803 1.094917 -2.546899 -6.901999 -7.692238 4.142507 42.388705 -1.022190 2.481630 5.360570 -28.824805 -6.816565 2.227053 -49.710162 -6.086533 -1.262111 -15.224306 -11.837353 0.591920 -3.919601 3.065780 -0.046280 0.174000 -0.133240 0.037080 26.973479 9.250454 3.415554 49.729774 6.334884 -3.349806 17.462015 15.183286 0.745521 2.636893 -1.366860 -0.085250 0.037340 0.072690 0.016800 
0.395930 17.782880 -2.368800 -1.392959 -1.896563 1.803184 -15.094268 13.439853 2.803281 6.550927 -1.201814 -12.788751 -4.992106 4.672133 8.370560 -0.092585 3.345919 3.414159 -0.051950 -0.095720 -0.063770 18.255693 -11.046962 2.719359 -5.401353 1.035303 -14.495545 6.601406 -4.324903 11.324754 0.085772 -3.044673 3.305901 -0.003850 0.218030 0.058870 -3.622488 -1.581908 -7.147653 6.853007 -0.349649 6.063937 -1.097993 -0.115347 3.664890 1.098161 -2.584922 -6.934834 -7.780866 4.156726 42.422602 -1.060720 2.485480 5.294450 -28.768828 -6.870734 2.250647 -49.740804 -6.105473 -1.221867 -15.274184 -11.680506 0.581488 -3.917194 3.065325 -0.044460 0.171360 -0.130270 0.037260 26.906442 9.312543 3.442003 49.763437 6.359240 -3.340987 17.553354 15.194117 0.756727 2.638153 -1.367028 -0.084040 0.037350 0.070560 0.016420 
0.395680 17.783220 -2.368090 -1.426969 -1.817597 1.810093 -15.094100 13.440378 2.802771 6.592528 -1.199366 -12.782114 -4.978070 4.662119 8.312626 -0.090724 3.341467 3.415679 -0.049520 -0.091920 -0.062640 18.256764 -11.040900 2.721876 -5.355857 1.025143 -14.431390 6.592112 -4.306744 11.211403 0.083458 -3.039666 3.308135 -0.002740 0.216040 0.057640 -3.625580 -1.593248 -7.150574 6.897044 -0.403515 6.050691 -1.122388 -0.167956 3.673780 1.094970 -2.622343 -6.966695 -7.865525 4.176291 42.424964 -1.025220 2.456750 5.249970 -28.732108 -6.930216 2.268456 -49.765144 -6.132133 -1.162076 -15.295757 -11.422461 0.561329 -3.914787 3.065407 -0.044100 0.168760 -0.128320 0.038440 26.872109 9.377741 3.479653 49.752889 6.338491 -3.355482 17.725059 15.276998 0.779515 2.638753 -1.368954 -0.082670 0.037780 0.068190 0.017450 
0.396190 17.783670 -2.366070 -1.445019 -1.730144 1.812604 -15.095658 13.442594 2.802804 6.614332 -1.194214 -12.751684 -4.969068 4.654464 8.254446 -0.087958 3.339144 3.417576 -0.048640 -0.089670 -0.062350 18.256050 -11.034404 2.723144 -5.335065 1.009286 -14.352366 6.573598 -4.286651 11.085238 0.081855 -3.035771 3.310338 -0.002090 0.215250 0.056050 -3.623740 -1.608922 -7.153470 6.911738 -0.454063 6.028548 -1.134181 -0.219415 3.670237 1.097815 -2.650948 -7.000224 -7.928668 4.195886 42.392314 -0.996910 2.444530 5.238970 -28.741177 -7.000021 2.285866 -49.769450 -6.136775 -1.096786 -15.366435 -11.103791 0.539395 -3.912910 3.065141 -0.044400 0.167080 -0.127150 0.039670 26.875696 9.445057 3.532866 49.671823 6.254418 -3.401578 18.013808 15.452038 0.820190 2.638389 -1.372323 -0.082280 0.038530 0.065960 0.018690 
0.397430 17.785340 -2.363590 -1.454300 -1.672764 1.792380 -15.096790 13.448293 2.803355 6.623241 -1.185913 -12.699111 -4.978634 4.658260 8.239310 -0.085394 3.342485 3.416912 -0.046330 -0.087330 -0.061510 18.255173 -11.028950 2.722955 -5.332539 0.988880 -14.248173 6.540668 -4.269284 10.976973 0.079969 -3.035352 3.311622 -0.001320 0.214360 0.055700 -3.621802 -1.629602 -7.156465 6.937733 -0.519917 6.019905 -1.172633 -0.283150 3.643940 1.107731 -2.708662 -7.020840 -8.047806 4.288892 42.406853 -0.966200 2.479150 5.262950 -28.857717 -7.054421 2.291401 -49.723081 -6.095860 -1.030693 -15.411919 -10.699709 0.503964 -3.911134 3.066979 -0.044250 0.165900 -0.126630 0.041250 26.969633 9.514044 3.571326 49.487073 6.201255 -3.419704 18.416404 15.611573 0.875501 2.636854 -1.377998 -0.081450 0.037640 0.063840 0.019120 
0.399750 17.787570 -2.362360 -1.454940 -1.666161 1.777620 -15.095900 13.452420 2.804171 6.598029 -1.182660 -12.679848 -4.979777 4.661793 8.251697 -0.084533 3.344548 3.417526 -0.048420 -0.089400 -0.064420 18.256017 -11.027393 2.722026 -5.341187 0.971514 -14.183176 6.461666 -4.242849 10.877482 0.081729 -3.032017 3.314932 -0.001960 0.216480 0.054290 -3.624567 -1.641411 -7.157852 6.990651 -0.555994 6.016730 -1.216493 -0.312942 3.639247 1.114428 -2.784913 -7.046866 -8.210262 4.350725 42.416211 -0.987360 2.478580 5.357330 -28.925210 -7.099079 2.295575 -49.715941 -6.079413 -0.989779 -15.579538 -10.505975 0.497610 -3.911093 3.067867 -0.045460 0.166950 -0.128870 0.042110 27.014746 9.596062 3.623574 49.294625 6.148053 -3.441691 18.869733 15.799771 0.939216 2.634511 -1.383157 -0.082860 0.038290 0.064450 0.019900 
0.401670 17.789280 -2.361790 -1.444730 -1.759156 1.769347 -15.093061 13.452295 2.805997 6.579414 -1.178877 -12.650976 -5.010937 4.669009 8.249111 -0.082090 3.346284 3.418039 -0.047730 -0.088170 -0.065040 18.258437 -11.029547 2.720705 -5.371328 0.961187 -14.164288 6.392137 -4.220997 10.819835 0.082142 -3.026737 3.317740 -0.001660 0.216880 0.052730 -3.630791 -1.639405 -7.158661 7.040557 -0.539942 6.022896 -1.275790 -0.286017 3.648577 1.113099 -2.864230 -7.075277 -8.378391 4.400861 42.420752 -0.954260 2.440570 5.374940 -28.931657 -7.116718 2.296794 -49.708029 -6.072179 -0.982701 -15.793613 -10.506476 0.513113 -3.907918 3.069521 -0.045720 0.165740 -0.128960 0.043530 27.009896 9.670537 3.680278 49.202959 6.093452 -3.484292 19.244000 16.041535 1.000141 2.632780 -1.387900 -0.082800 0.039470 0.063210 0.021160 
